%TF.GenerationSoftware,KiCad,Pcbnew,10.0.0*%
%TF.CreationDate,2026-07-29T13:21:11-07:00*%
%TF.ProjectId,devboard,64657662-6f61-4726-942e-6b696361645f,rev?*%
%TF.SameCoordinates,Original*%
%TF.FileFunction,Soldermask,Top*%
%TF.FilePolarity,Negative*%
%FSLAX46Y46*%
G04 Gerber Fmt 4.6, Leading zero omitted, Abs format (unit mm)*
G04 Created by KiCad (PCBNEW 10.0.0) date 2026-07-29 13:21:11*
%MOMM*%
%LPD*%
G01*
G04 APERTURE LIST*
G04 Aperture macros list*
%AMRoundRect*
0 Rectangle with rounded corners*
0 $1 Rounding radius*
0 $2 $3 $4 $5 $6 $7 $8 $9 X,Y pos of 4 corners*
0 Add a 4 corners polygon primitive as box body*
4,1,4,$2,$3,$4,$5,$6,$7,$8,$9,$2,$3,0*
0 Add four circle primitives for the rounded corners*
1,1,$1+$1,$2,$3*
1,1,$1+$1,$4,$5*
1,1,$1+$1,$6,$7*
1,1,$1+$1,$8,$9*
0 Add four rect primitives between the rounded corners*
20,1,$1+$1,$2,$3,$4,$5,0*
20,1,$1+$1,$4,$5,$6,$7,0*
20,1,$1+$1,$6,$7,$8,$9,0*
20,1,$1+$1,$8,$9,$2,$3,0*%
G04 Aperture macros list end*
%ADD10RoundRect,0.140000X-0.140000X-0.170000X0.140000X-0.170000X0.140000X0.170000X-0.140000X0.170000X0*%
%ADD11RoundRect,0.135000X0.185000X-0.135000X0.185000X0.135000X-0.185000X0.135000X-0.185000X-0.135000X0*%
%ADD12RoundRect,0.225000X-0.225000X-0.250000X0.225000X-0.250000X0.225000X0.250000X-0.225000X0.250000X0*%
%ADD13RoundRect,0.135000X-0.135000X-0.185000X0.135000X-0.185000X0.135000X0.185000X-0.135000X0.185000X0*%
%ADD14R,1.700000X1.700000*%
%ADD15C,1.700000*%
%ADD16RoundRect,0.140000X0.170000X-0.140000X0.170000X0.140000X-0.170000X0.140000X-0.170000X-0.140000X0*%
%ADD17RoundRect,0.140000X0.140000X0.170000X-0.140000X0.170000X-0.140000X-0.170000X0.140000X-0.170000X0*%
%ADD18RoundRect,0.250000X-0.450000X-0.350000X0.450000X-0.350000X0.450000X0.350000X-0.450000X0.350000X0*%
%ADD19RoundRect,0.050000X-0.387500X-0.050000X0.387500X-0.050000X0.387500X0.050000X-0.387500X0.050000X0*%
%ADD20RoundRect,0.050000X-0.050000X-0.387500X0.050000X-0.387500X0.050000X0.387500X-0.050000X0.387500X0*%
%ADD21R,3.200000X3.200000*%
%ADD22RoundRect,0.200000X-0.800000X0.200000X-0.800000X-0.200000X0.800000X-0.200000X0.800000X0.200000X0*%
%ADD23RoundRect,0.150000X0.150000X-0.587500X0.150000X0.587500X-0.150000X0.587500X-0.150000X-0.587500X0*%
%ADD24RoundRect,0.135000X0.135000X0.185000X-0.135000X0.185000X-0.135000X-0.185000X0.135000X-0.185000X0*%
%ADD25RoundRect,0.062500X0.387500X0.062500X-0.387500X0.062500X-0.387500X-0.062500X0.387500X-0.062500X0*%
%ADD26R,0.200000X1.600000*%
%ADD27RoundRect,0.090000X0.090000X0.785000X-0.090000X0.785000X-0.090000X-0.785000X0.090000X-0.785000X0*%
%ADD28RoundRect,0.102500X0.102500X0.672500X-0.102500X0.672500X-0.102500X-0.672500X0.102500X-0.672500X0*%
%ADD29RoundRect,0.065000X0.065000X0.710000X-0.065000X0.710000X-0.065000X-0.710000X0.065000X-0.710000X0*%
%ADD30RoundRect,0.065000X-0.065000X-0.710000X0.065000X-0.710000X0.065000X0.710000X-0.065000X0.710000X0*%
%ADD31C,0.650000*%
%ADD32RoundRect,0.150000X0.150000X0.575000X-0.150000X0.575000X-0.150000X-0.575000X0.150000X-0.575000X0*%
%ADD33RoundRect,0.075000X0.075000X0.650000X-0.075000X0.650000X-0.075000X-0.650000X0.075000X-0.650000X0*%
%ADD34O,1.000000X2.100000*%
%ADD35O,1.000000X1.600000*%
%ADD36RoundRect,0.250000X-0.750000X-0.250000X0.750000X-0.250000X0.750000X0.250000X-0.750000X0.250000X0*%
%ADD37RoundRect,0.250000X-0.250000X0.750000X-0.250000X-0.750000X0.250000X-0.750000X0.250000X0.750000X0*%
G04 APERTURE END LIST*
D10*
%TO.C,C4*%
X99090000Y-93050000D03*
X100050000Y-93050000D03*
%TD*%
%TO.C,C12*%
X98720000Y-91950000D03*
X99680000Y-91950000D03*
%TD*%
D11*
%TO.C,R2*%
X86150000Y-76610000D03*
X86150000Y-75590000D03*
%TD*%
D12*
%TO.C,C19*%
X84525000Y-83200000D03*
X86075000Y-83200000D03*
%TD*%
D10*
%TO.C,C5*%
X99390000Y-97950000D03*
X100350000Y-97950000D03*
%TD*%
D13*
%TO.C,R11*%
X98240000Y-116650000D03*
X99260000Y-116650000D03*
%TD*%
D14*
%TO.C,J3*%
X108540000Y-68420000D03*
D15*
X108540000Y-70960000D03*
X108540000Y-73500000D03*
X108540000Y-76040000D03*
X108540000Y-78580000D03*
X108540000Y-81120000D03*
X108540000Y-83660000D03*
X108540000Y-86200000D03*
X108540000Y-88740000D03*
X108540000Y-91280000D03*
X108540000Y-93820000D03*
X108540000Y-96360000D03*
X108540000Y-98900000D03*
X108540000Y-101440000D03*
X108540000Y-103980000D03*
X108540000Y-106520000D03*
X108540000Y-109060000D03*
X108540000Y-111600000D03*
X108540000Y-114140000D03*
X108540000Y-116680000D03*
%TD*%
D16*
%TO.C,C8*%
X97550000Y-91610000D03*
X97550000Y-90650000D03*
%TD*%
D13*
%TO.C,R12*%
X102630000Y-118600000D03*
X103650000Y-118600000D03*
%TD*%
%TO.C,R7*%
X92485000Y-83345000D03*
X93505000Y-83345000D03*
%TD*%
D17*
%TO.C,C11*%
X87450000Y-92350000D03*
X86490000Y-92350000D03*
%TD*%
D18*
%TO.C,Y1*%
X93050000Y-105900000D03*
X95250000Y-105900000D03*
X95250000Y-104200000D03*
X93050000Y-104200000D03*
%TD*%
D13*
%TO.C,R9*%
X102580000Y-70000000D03*
X103600000Y-70000000D03*
%TD*%
D17*
%TO.C,C3*%
X88300000Y-97550000D03*
X87340000Y-97550000D03*
%TD*%
D10*
%TO.C,C6*%
X101040000Y-92600000D03*
X102000000Y-92600000D03*
%TD*%
D17*
%TO.C,C1*%
X86100000Y-96550000D03*
X85140000Y-96550000D03*
%TD*%
D19*
%TO.C,U1*%
X90475000Y-94200000D03*
X90475000Y-94600000D03*
X90475000Y-95000000D03*
X90475000Y-95400000D03*
X90475000Y-95800000D03*
X90475000Y-96200000D03*
X90475000Y-96600000D03*
X90475000Y-97000000D03*
X90475000Y-97400000D03*
X90475000Y-97800000D03*
X90475000Y-98200000D03*
X90475000Y-98600000D03*
X90475000Y-99000000D03*
X90475000Y-99400000D03*
D20*
X91312500Y-100237500D03*
X91712500Y-100237500D03*
X92112500Y-100237500D03*
X92512500Y-100237500D03*
X92912500Y-100237500D03*
X93312500Y-100237500D03*
X93712500Y-100237500D03*
X94112500Y-100237500D03*
X94512500Y-100237500D03*
X94912500Y-100237500D03*
X95312500Y-100237500D03*
X95712500Y-100237500D03*
X96112500Y-100237500D03*
X96512500Y-100237500D03*
D19*
X97350000Y-99400000D03*
X97350000Y-99000000D03*
X97350000Y-98600000D03*
X97350000Y-98200000D03*
X97350000Y-97800000D03*
X97350000Y-97400000D03*
X97350000Y-97000000D03*
X97350000Y-96600000D03*
X97350000Y-96200000D03*
X97350000Y-95800000D03*
X97350000Y-95400000D03*
X97350000Y-95000000D03*
X97350000Y-94600000D03*
X97350000Y-94200000D03*
D20*
X96512500Y-93362500D03*
X96112500Y-93362500D03*
X95712500Y-93362500D03*
X95312500Y-93362500D03*
X94912500Y-93362500D03*
X94512500Y-93362500D03*
X94112500Y-93362500D03*
X93712500Y-93362500D03*
X93312500Y-93362500D03*
X92912500Y-93362500D03*
X92512500Y-93362500D03*
X92112500Y-93362500D03*
X91712500Y-93362500D03*
X91312500Y-93362500D03*
D21*
X93912500Y-96800000D03*
%TD*%
D11*
%TO.C,R4*%
X95750000Y-91410000D03*
X95750000Y-90390000D03*
%TD*%
D22*
%TO.C,SW1*%
X103350000Y-74300000D03*
X103350000Y-78500000D03*
%TD*%
D23*
%TO.C,U4*%
X96962500Y-81187500D03*
X98862500Y-81187500D03*
X97912500Y-79312500D03*
%TD*%
D17*
%TO.C,C9*%
X86150000Y-97800000D03*
X85190000Y-97800000D03*
%TD*%
D12*
%TO.C,C14*%
X97000000Y-84200000D03*
X98550000Y-84200000D03*
%TD*%
D24*
%TO.C,R1*%
X92350000Y-75950000D03*
X91330000Y-75950000D03*
%TD*%
D13*
%TO.C,R6*%
X94580000Y-102600000D03*
X95600000Y-102600000D03*
%TD*%
D10*
%TO.C,C7*%
X100090000Y-99100000D03*
X101050000Y-99100000D03*
%TD*%
D13*
%TO.C,R8*%
X90000000Y-80000000D03*
X91020000Y-80000000D03*
%TD*%
D12*
%TO.C,C18*%
X83050000Y-76500000D03*
X84600000Y-76500000D03*
%TD*%
D11*
%TO.C,R5*%
X94750000Y-91430000D03*
X94750000Y-90410000D03*
%TD*%
D14*
%TO.C,J2*%
X79760000Y-68420000D03*
D15*
X79760000Y-70960000D03*
X79760000Y-73500000D03*
X79760000Y-76040000D03*
X79760000Y-78580000D03*
X79760000Y-81120000D03*
X79760000Y-83660000D03*
X79760000Y-86200000D03*
X79760000Y-88740000D03*
X79760000Y-91280000D03*
X79760000Y-93820000D03*
X79760000Y-96360000D03*
X79760000Y-98900000D03*
X79760000Y-101440000D03*
X79760000Y-103980000D03*
X79760000Y-106520000D03*
X79760000Y-109060000D03*
X79760000Y-111600000D03*
X79760000Y-114140000D03*
X79760000Y-116680000D03*
%TD*%
D17*
%TO.C,C2*%
X87500000Y-93450000D03*
X86540000Y-93450000D03*
%TD*%
D16*
%TO.C,C15*%
X91350000Y-106110000D03*
X91350000Y-105150000D03*
%TD*%
D25*
%TO.C,U2*%
X87300000Y-88050000D03*
X87300000Y-87550000D03*
X87300000Y-87050000D03*
X87300000Y-86550000D03*
X84450000Y-86550000D03*
X84450000Y-87050000D03*
X84450000Y-87550000D03*
X84450000Y-88050000D03*
D26*
X85875000Y-87300000D03*
%TD*%
D27*
%TO.C,USB-C Plug*%
X103475000Y-64030000D03*
X96665000Y-64030000D03*
D28*
X97245000Y-63930000D03*
D29*
X97820000Y-63930000D03*
X98320000Y-63930000D03*
X98820000Y-63930000D03*
X99320000Y-63930000D03*
D30*
X99820000Y-63930000D03*
X100320000Y-63930000D03*
D29*
X100820000Y-63930000D03*
X101320000Y-63930000D03*
X101820000Y-63930000D03*
X102320000Y-63930000D03*
D28*
X102895000Y-63930000D03*
%TD*%
D13*
%TO.C,R3*%
X97580000Y-68200000D03*
X98600000Y-68200000D03*
%TD*%
D31*
%TO.C,USB-C Receptacle*%
X91020000Y-71900000D03*
X85240000Y-71900000D03*
D32*
X91380000Y-73345000D03*
X90580000Y-73345000D03*
D33*
X89380000Y-73345000D03*
X88380000Y-73345000D03*
X87880000Y-73345000D03*
X86880000Y-73345000D03*
D32*
X85680000Y-73345000D03*
X84880000Y-73345000D03*
X84880000Y-73345000D03*
X85680000Y-73345000D03*
D33*
X86380000Y-73345000D03*
X87380000Y-73345000D03*
X88880000Y-73345000D03*
X89880000Y-73345000D03*
D32*
X90580000Y-73345000D03*
X91380000Y-73345000D03*
D34*
X92450000Y-72430000D03*
D35*
X92450000Y-68250000D03*
D34*
X83810000Y-72430000D03*
D35*
X83810000Y-68250000D03*
%TD*%
D12*
%TO.C,C13*%
X96925000Y-76450000D03*
X98475000Y-76450000D03*
%TD*%
D16*
%TO.C,C16*%
X96750000Y-106110000D03*
X96750000Y-105150000D03*
%TD*%
D23*
%TO.C,U3*%
X84250000Y-80825000D03*
X86150000Y-80825000D03*
X85200000Y-78950000D03*
%TD*%
D14*
%TO.C,J4*%
X80120000Y-129650000D03*
D15*
X82660000Y-129650000D03*
X85200000Y-129650000D03*
%TD*%
D17*
%TO.C,C17*%
X101700000Y-94050000D03*
X100740000Y-94050000D03*
%TD*%
D10*
%TO.C,C10*%
X99390000Y-96900000D03*
X100350000Y-96900000D03*
%TD*%
D36*
%TO.C,RM2*%
X107200000Y-131150000D03*
X107200000Y-129650000D03*
X107200000Y-128150000D03*
X107200000Y-126650000D03*
X107200000Y-125150000D03*
X107200000Y-123650000D03*
X107200000Y-122150000D03*
D37*
X104950000Y-120850000D03*
X103450000Y-120850000D03*
X101950000Y-120850000D03*
X100450000Y-120850000D03*
X98950000Y-120850000D03*
X97450000Y-120850000D03*
X95950000Y-120850000D03*
D36*
X93700000Y-122150000D03*
X93700000Y-123650000D03*
X93700000Y-125150000D03*
X93700000Y-126650000D03*
X93700000Y-128150000D03*
X93700000Y-129650000D03*
X93700000Y-131150000D03*
%TD*%
M02*
