M48
; DRILL file KiCad 10.0.0 date 2026-07-29T13:21:16
; FORMAT={-:-/ absolute / metric / decimal}
; #@! TF.CreationDate,2026-07-29T13:21:16-07:00
; #@! TF.GenerationSoftware,Kicad,Pcbnew,10.0.0
; #@! TF.FileFunction,Plated,1,2,PTH
FMAT,2
METRIC
; #@! TA.AperFunction,Plated,PTH,ViaDrill
T1C0.300
; #@! TA.AperFunction,Plated,PTH,ComponentDrill
T2C0.600
; #@! TA.AperFunction,Plated,PTH,ComponentDrill
T3C1.000
%
G90
G05
T1
X80.2Y-87.3
X80.31Y-84.967
X80.55Y-100.15
X81.6Y-73.8
X82.2Y-71.85
X83.5Y-105.1
X83.5Y-107.55
X83.7Y-128.65
X84.1Y-102.85
X84.6Y-76.5
X85.19Y-97.8
X85.42Y-75.02
X86.073Y-72.167
X86.4Y-88.45
X86.45Y-91.8
X87.34Y-97.55
X87.6Y-89.3
X88.4Y-81.95
X88.574Y-81.076
X88.601Y-95.652
X88.8Y-77.3
X89.55Y-71.68
X90.95Y-86.65
X91.292Y-96.595
X91.385Y-95.624
X91.45Y-94.55
X91.6Y-107.9
X91.8Y-85.3
X91.85Y-82.4
X91.95Y-81.076
X92.2Y-80.05
X92.35Y-108.45
X92.703Y-99.3
X93.3Y-102.6
X94.493Y-99.207
X94.531Y-97.418
X95.25Y-105.9
X95.292Y-99.168
X95.4Y-101.35
X95.55Y-71.9
X95.8Y-69.8
X96.056Y-98.259
X96.15Y-99.15
X96.4Y-94.7
X96.4Y-96.6
X96.428Y-95.729
X96.536Y-97.399
X96.55Y-91.9
X96.676Y-119.074
X96.954Y-102.146
X97.55Y-65.4
X97.76Y-111.85
X97.85Y-74.15
X98.3Y-66.55
X98.36Y-113.0
X98.5Y-114.4
X98.8Y-94.3
X99.1Y-72.05
X99.2Y-82.9
X99.503Y-91.141
X100.3Y-94.8
X100.5Y-91.7
X100.509Y-118.758
X100.575Y-103.625
X100.651Y-86.894
X100.75Y-110.4
X101.15Y-65.65
X101.15Y-67.82
X101.15Y-94.8
X101.853Y-65.268
X102.0Y-122.7
X102.5Y-95.7
X102.5Y-115.6
X102.981Y-65.619
X103.051Y-95.001
X103.1Y-100.65
X103.2Y-79.95
X103.45Y-120.85
X103.65Y-112.85
X103.85Y-106.85
X104.3Y-111.2
X104.509Y-96.159
X104.6Y-93.2
X106.351Y-106.799
X106.5Y-81.5
X106.6Y-96.6
X107.014Y-91.114
X107.6Y-87.35
X107.602Y-105.549
X108.0Y-100.0
X109.05Y-129.2
X109.25Y-79.95
T3
X79.76Y-68.42
X79.76Y-70.96
X79.76Y-73.5
X79.76Y-76.04
X79.76Y-78.58
X79.76Y-81.12
X79.76Y-83.66
X79.76Y-86.2
X79.76Y-88.74
X79.76Y-91.28
X79.76Y-93.82
X79.76Y-96.36
X79.76Y-98.9
X79.76Y-101.44
X79.76Y-103.98
X79.76Y-106.52
X79.76Y-109.06
X79.76Y-111.6
X79.76Y-114.14
X79.76Y-116.68
X80.12Y-129.65
X82.66Y-129.65
X85.2Y-129.65
X108.54Y-68.42
X108.54Y-70.96
X108.54Y-73.5
X108.54Y-76.04
X108.54Y-78.58
X108.54Y-81.12
X108.54Y-83.66
X108.54Y-86.2
X108.54Y-88.74
X108.54Y-91.28
X108.54Y-93.82
X108.54Y-96.36
X108.54Y-98.9
X108.54Y-101.44
X108.54Y-103.98
X108.54Y-106.52
X108.54Y-109.06
X108.54Y-111.6
X108.54Y-114.14
X108.54Y-116.68
T2
G00X83.81Y-68.55
M15
G01X83.81Y-67.95
M16
G05
G00X83.81Y-72.98
M15
G01X83.81Y-71.88
M16
G05
G00X92.45Y-68.55
M15
G01X92.45Y-67.95
M16
G05
G00X92.45Y-72.98
M15
G01X92.45Y-71.88
M16
G05
M30
