%TF.GenerationSoftware,KiCad,Pcbnew,10.0.0*%
%TF.CreationDate,2026-07-29T13:21:11-07:00*%
%TF.ProjectId,devboard,64657662-6f61-4726-942e-6b696361645f,rev?*%
%TF.SameCoordinates,Original*%
%TF.FileFunction,Soldermask,Bot*%
%TF.FilePolarity,Negative*%
%FSLAX46Y46*%
G04 Gerber Fmt 4.6, Leading zero omitted, Abs format (unit mm)*
G04 Created by KiCad (PCBNEW 10.0.0) date 2026-07-29 13:21:11*
%MOMM*%
%LPD*%
G01*
G04 APERTURE LIST*
G04 Aperture macros list*
%AMRoundRect*
0 Rectangle with rounded corners*
0 $1 Rounding radius*
0 $2 $3 $4 $5 $6 $7 $8 $9 X,Y pos of 4 corners*
0 Add a 4 corners polygon primitive as box body*
4,1,4,$2,$3,$4,$5,$6,$7,$8,$9,$2,$3,0*
0 Add four circle primitives for the rounded corners*
1,1,$1+$1,$2,$3*
1,1,$1+$1,$4,$5*
1,1,$1+$1,$6,$7*
1,1,$1+$1,$8,$9*
0 Add four rect primitives between the rounded corners*
20,1,$1+$1,$2,$3,$4,$5,0*
20,1,$1+$1,$4,$5,$6,$7,0*
20,1,$1+$1,$6,$7,$8,$9,0*
20,1,$1+$1,$8,$9,$2,$3,0*%
G04 Aperture macros list end*
%ADD10R,1.700000X1.700000*%
%ADD11C,1.700000*%
%ADD12RoundRect,0.102500X0.102500X0.672500X-0.102500X0.672500X-0.102500X-0.672500X0.102500X-0.672500X0*%
%ADD13RoundRect,0.065000X0.065000X0.710000X-0.065000X0.710000X-0.065000X-0.710000X0.065000X-0.710000X0*%
%ADD14RoundRect,0.065000X-0.065000X-0.710000X0.065000X-0.710000X0.065000X0.710000X-0.065000X0.710000X0*%
%ADD15RoundRect,0.200000X0.200000X0.550000X-0.200000X0.550000X-0.200000X-0.550000X0.200000X-0.550000X0*%
%ADD16RoundRect,0.090000X0.090000X0.935000X-0.090000X0.935000X-0.090000X-0.935000X0.090000X-0.935000X0*%
%ADD17RoundRect,0.175000X-0.175000X-0.575000X0.175000X-0.575000X0.175000X0.575000X-0.175000X0.575000X0*%
%ADD18C,0.650000*%
%ADD19O,1.000000X2.100000*%
%ADD20O,1.000000X1.600000*%
G04 APERTURE END LIST*
D10*
%TO.C,J3*%
X108540000Y-68420000D03*
D11*
X108540000Y-70960000D03*
X108540000Y-73500000D03*
X108540000Y-76040000D03*
X108540000Y-78580000D03*
X108540000Y-81120000D03*
X108540000Y-83660000D03*
X108540000Y-86200000D03*
X108540000Y-88740000D03*
X108540000Y-91280000D03*
X108540000Y-93820000D03*
X108540000Y-96360000D03*
X108540000Y-98900000D03*
X108540000Y-101440000D03*
X108540000Y-103980000D03*
X108540000Y-106520000D03*
X108540000Y-109060000D03*
X108540000Y-111600000D03*
X108540000Y-114140000D03*
X108540000Y-116680000D03*
%TD*%
D10*
%TO.C,J2*%
X79760000Y-68420000D03*
D11*
X79760000Y-70960000D03*
X79760000Y-73500000D03*
X79760000Y-76040000D03*
X79760000Y-78580000D03*
X79760000Y-81120000D03*
X79760000Y-83660000D03*
X79760000Y-86200000D03*
X79760000Y-88740000D03*
X79760000Y-91280000D03*
X79760000Y-93820000D03*
X79760000Y-96360000D03*
X79760000Y-98900000D03*
X79760000Y-101440000D03*
X79760000Y-103980000D03*
X79760000Y-106520000D03*
X79760000Y-109060000D03*
X79760000Y-111600000D03*
X79760000Y-114140000D03*
X79760000Y-116680000D03*
%TD*%
D12*
%TO.C,USB-C Plug*%
X102895000Y-63930000D03*
D13*
X102320000Y-63930000D03*
X101820000Y-63930000D03*
X101320000Y-63930000D03*
X100820000Y-63930000D03*
D14*
X100320000Y-63930000D03*
D13*
X99820000Y-63930000D03*
X99320000Y-63930000D03*
X98820000Y-63930000D03*
X98320000Y-63930000D03*
X97820000Y-63930000D03*
D12*
X97245000Y-63930000D03*
D15*
X103695000Y-66250000D03*
D16*
X103475000Y-64180000D03*
D17*
X96800000Y-66250000D03*
D16*
X96665000Y-64180000D03*
%TD*%
D18*
%TO.C,USB-C Receptacle*%
X91020000Y-71900000D03*
X85240000Y-71900000D03*
D19*
X92450000Y-72430000D03*
D20*
X92450000Y-68250000D03*
D19*
X83810000Y-72430000D03*
D20*
X83810000Y-68250000D03*
%TD*%
D10*
%TO.C,J4*%
X80120000Y-129650000D03*
D11*
X82660000Y-129650000D03*
X85200000Y-129650000D03*
%TD*%
M02*
